Coordinates
version=1
nRows=29
nColumns=22
inDegrees=yes

Units are S.I. units (second, meters, Newtons, ...)
If the header above contains a line with 'inDegrees', this indicates whether rotational values are in degrees (yes) or radians (no).

endheader
time	pelvis_tilt	pelvis_list	pelvis_rotation	pelvis_tx	pelvis_ty	pelvis_tz	hip_flexion_r	hip_adduction_r	hip_rotation_r	knee_angle_r	ankle_angle_r	subtalar_angle_r	hip_flexion_l	hip_adduction_l	hip_rotation_l	knee_angle_l	ankle_angle_l	subtalar_angle_l	lumbar_extension	lumbar_bending	lumbar_rotation
      4.33000000	      4.08509824	     -0.41535407	     -0.05866307	     -0.90180336	      0.90876135	     -0.05697774	    -13.38027688	      3.43482945	     -1.01212462	    -28.26181978	     17.51372872	      1.15957976	     25.93263834	      0.49758194	     -9.65178556	    -23.46215913	     15.81323023	    -12.29503486	    -16.79579199	     -0.15400877	     -0.53799669
      4.34000000	      4.01729340	     -0.59581602	     -0.26954502	     -0.91236877	      0.90872645	     -0.05557132	    -12.93049198	      3.61402101	     -1.41877792	    -27.77203827	     18.91512983	      0.33751814	     25.97249537	      0.15818243	    -10.12360717	    -22.53338330	     15.99839929	    -11.41034281	    -16.93567739	      0.03628188	     -0.45731995
      4.35000000	      3.94997946	     -0.77357580	     -0.42950113	     -0.92255525	      0.90875658	     -0.05425217	    -12.50133364	      3.82018981	     -1.75570218	    -27.25371657	     20.12941593	     -0.44353402	     26.02616451	     -0.18496706	    -10.67846690	    -21.82327605	     16.09069958	    -10.64372426	    -17.02623236	      0.22857195	     -0.46776924
      4.36000000	      3.88781747	     -0.92502443	     -0.54856595	     -0.93237647	      0.90884378	     -0.05300746	    -12.08781250	      4.02252643	     -2.03968641	    -26.73864696	     21.18170967	     -1.17089898	     26.09778531	     -0.51010445	    -11.27731856	    -21.37664409	     16.11472228	    -10.05775255	    -17.08012866	      0.38752939	     -0.52874194
      4.37000000	      3.85580976	     -1.06333886	     -0.60123174	     -0.94182254	      0.90902260	     -0.05185114	    -11.74884913	      4.24461171	     -2.28964972	    -26.17652351	     22.10215908	     -1.88041601	     26.18964442	     -0.83292527	    -11.88426680	    -21.26854112	     16.07882446	     -9.67598059	    -17.13040399	      0.53306145	     -0.66075111
      4.38000000	      3.86617345	     -1.18019678	     -0.58245278	     -0.95088798	      0.90931633	     -0.05078746	    -11.50882527	      4.47672571	     -2.53191158	    -25.55128309	     22.90151415	     -2.58257013	     26.29245543	     -1.14890118	    -12.46811741	    -21.52177588	     16.00557085	     -9.52819295	    -17.19376780	      0.65514122	     -0.87067226
      4.39000000	      3.93091229	     -1.27949242	     -0.49989498	     -0.95959536	      0.90975304	     -0.04981106	    -11.37938311	      4.71549285	     -2.79721833	    -24.86310122	     23.58590327	     -3.29304118	     26.38192487	     -1.46219185	    -12.96821166	    -22.11670828	     15.91577366	     -9.63030068	    -17.29071606	      0.75851897	     -1.14032092
      4.40000000	      4.04913208	     -1.35155381	     -0.36104874	     -0.96794581	      0.91033452	     -0.04890623	    -11.35986630	      4.95174540	     -3.07241670	    -24.11326061	     24.16803654	     -3.94696400	     26.44342707	     -1.75918556	    -13.32842272	    -23.01930343	     15.85196566	     -9.96601720	    -17.41815819	      0.82911419	     -1.47646471
      4.41000000	      4.21482006	     -1.41551428	     -0.18705148	     -0.97599240	      0.91106296	     -0.04809023	    -11.42470172	      5.18769019	     -3.38568585	    -23.32854252	     24.64977280	     -4.58915161	     26.46525791	     -2.05363958	    -13.50813698	    -24.17421671	     15.80082312	    -10.50978624	    -17.58158987	      0.89583073	     -1.82864524
      4.42000000	      4.41212896	     -1.47953776	      0.00692172	     -0.98376379	      0.91191634	     -0.04732136	    -11.53956267	      5.42949515	     -3.71767653	    -22.53960711	     25.03726405	     -5.20578825	     26.45119574	     -2.34839451	    -13.47725006	    -25.53157381	     15.77888853	    -11.23318883	    -17.76219609	      0.95771638	     -2.18169956
      4.43000000	      4.62237751	     -1.56125120	      0.21621249	     -0.99125320	      0.91287965	     -0.04664443	    -11.69125313	      5.68730601	     -4.05203568	    -21.73055826	     25.31282595	     -5.70887121	     26.40746695	     -2.63906025	    -13.18624672	    -27.03764507	     15.80864472	    -12.00682244	    -17.93736973	      1.04851386	     -2.52207572
      4.44000000	      4.82689450	     -1.66141219	      0.38003402	     -0.99858720	      0.91392153	     -0.04597523	    -11.77506009	      5.93763627	     -4.35987829	    -21.05524542	     25.53833161	     -6.23841539	     26.35327462	     -2.94459382	    -12.71390362	    -28.66203285	     15.83569811	    -13.00834713	    -18.10762699	      1.15156407	     -2.78581059
      4.45000000	      5.01215923	     -1.80331908	      0.53027030	     -1.00568524	      0.91504592	     -0.04539784	    -11.81926331	      6.21062409	     -4.62699454	    -20.43537298	     25.61281120	     -6.59546754	     26.28942625	     -3.25431929	    -12.01216528	    -30.35204775	     15.91657394	    -13.91287502	    -18.23897879	      1.31314794	     -3.02180286
      4.46000000	      5.16878240	     -1.98630660	      0.63542612	     -1.01259864	      0.91624319	     -0.04485812	    -11.77125243	      6.49244594	     -4.83727176	    -19.94770256	     25.54243290	     -6.82980016	     26.22219837	     -3.58191940	    -11.16646426	    -32.08324567	     16.03402215	    -14.73307964	    -18.33138094	      1.52143784	     -3.21537398
      4.47000000	      5.27948850	     -2.19898042	      0.67565580	     -1.01929558	      0.91751114	     -0.04433748	    -11.62538419	      6.76828367	     -4.96136186	    -19.56927584	     25.40940369	     -6.97037194	     26.14891835	     -3.91566607	    -10.22186349	    -33.80826960	     16.16574303	    -15.52028411	    -18.35628725	      1.75613625	     -3.32203455
      4.48000000	      5.35005132	     -2.43511582	      0.64962439	     -1.02578581	      0.91885152	     -0.04382837	    -11.38482654	      7.03222042	     -5.01153069	    -19.30671680	     25.18203720	     -7.01653552	     26.05820737	     -4.25072767	     -9.21796889	    -35.50916209	     16.32225084	    -16.20608702	    -18.32461444	      2.00733643	     -3.34800112
      4.49000000	      5.39333886	     -2.67414774	      0.56090639	     -1.03207038	      0.92027574	     -0.04332979	    -11.07629482	      7.27230352	     -4.96521689	    -19.14178961	     24.88548908	     -6.98606197	     25.92618079	     -4.57382158	     -8.21529983	    -37.16058827	     16.49756526	    -16.75975486	    -18.25260564	      2.25652391	     -3.35339637
      4.50000000	      5.40616048	     -2.89543106	      0.41453996	     -1.03809066	      0.92175567	     -0.04283635	    -10.72818543	      7.47154265	     -4.86152273	    -19.02265755	     24.55339573	     -6.90171631	     25.74671963	     -4.87528434	     -7.27685850	    -38.74942406	     16.68571530	    -17.21634657	    -18.12607946	      2.47577810	     -3.34216294
      4.51000000	      5.41347350	     -3.08242214	      0.22794503	     -1.04384039	      0.92331220	     -0.04234280	    -10.39322978	      7.62834264	     -4.68991580	    -18.90449501	     24.16304868	     -6.80266607	     25.48471168	     -5.14023415	     -6.41935299	    -40.25340049	     16.89904870	    -17.51560334	    -17.97530030	      2.64908248	     -3.35994726
      4.52000000	      5.45183826	     -3.23042571	      0.02535391	     -1.04927766	      0.92495571	     -0.04186991	    -10.14517633	      7.74042349	     -4.53706620	    -18.72585573	     23.79275588	     -6.72938776	     25.10580428	     -5.36723766	     -5.65698224	    -41.67652621	     17.11994867	    -17.67321991	    -17.83730454	      2.76795337	     -3.35069064
      4.53000000	      5.38940412	     -3.32833884	     -0.19998037	     -1.05450292	      0.92643581	     -0.04141400	     -9.78336409	      7.80324493	     -4.34111524	    -18.59212030	     23.39797207	     -6.58776155	     24.76906321	     -5.53493234	     -4.96948081	    -43.02142496	     17.37617313	    -17.96105911	    -17.56799158	      2.82629581	     -3.38906019
      4.54000000	      5.41784208	     -3.35774742	     -0.39609446	     -1.05940269	      0.92804561	     -0.04100766	     -9.59792600	      7.80714663	     -4.17590533	    -18.35190423	     23.00019636	     -6.56208178	     24.24190425	     -5.62950673	     -4.37442506	    -44.24661050	     17.69939566	    -18.00475046	    -17.38331432	      2.80287450	     -3.50008681
      4.55000000	      5.42123131	     -3.36951105	     -0.56363823	     -1.06411420	      0.92952745	     -0.04066882	     -9.39602457	      7.80542612	     -4.02973289	    -18.11896037	     22.61154920	     -6.54910267	     23.70524693	     -5.69889164	     -3.83131111	    -45.41604423	     18.02731790	    -18.08181499	    -17.16785282	      2.76534778	     -3.65060915
      4.56000000	      5.42555404	     -3.34055054	     -0.68467336	     -1.06861014	      0.93091193	     -0.04044048	     -9.21319751	      7.77258400	     -3.92264591	    -17.88168698	     22.25494044	     -6.57464671	     23.12090090	     -5.70706999	     -3.31899566	    -46.50121307	     18.41108484	    -18.14539296	    -16.94718248	      2.69174233	     -3.85929529
      4.57000000	      5.42732955	     -3.28642883	     -0.75281281	     -1.07291162	      0.93217210	     -0.04032192	     -9.03866127	      7.72551924	     -3.86528009	    -17.64864737	     21.92824298	     -6.63233682	     22.50667121	     -5.67546584	     -2.83568915	    -47.51159697	     18.84306288	    -18.19062963	    -16.72242941	      2.59906873	     -4.11353759
      4.58000000	      5.43552638	     -3.23820716	     -0.76735167	     -1.07709777	      0.93330163	     -0.04032927	     -8.85080653	      7.69311660	     -3.85519500	    -17.47252416	     21.62179140	     -6.73441692	     21.87264365	     -5.62782092	     -2.33825408	    -48.46244279	     19.29169881	    -18.28329463	    -16.52212825	      2.52681134	     -4.42285742
      4.59000000	      5.43574874	     -3.18468677	     -0.73371857	     -1.08111160	      0.93428346	     -0.04047939	     -8.64801252	      7.65839353	     -3.89458326	    -17.33135483	     21.35336941	     -6.86495655	     21.23001702	     -5.56322403	     -1.85991471	    -49.34255625	     19.76531981	    -18.39138317	    -16.31522198	      2.46755143	     -4.74735822
      4.60000000	      5.42695601	     -3.13862959	     -0.67014104	     -1.08499717	      0.93513202	     -0.04073613	     -8.41902571	      7.63238820	     -3.95860955	    -17.23705942	     21.11772554	     -7.01866053	     20.58139445	     -5.49769115	     -1.39442661	    -50.14482653	     20.23954243	    -18.51970535	    -16.11262744	      2.42578200	     -5.08051264
      4.61000000	      5.40743496	     -3.10818690	     -0.58776300	     -1.08875073	      0.93585857	     -0.04108452	     -8.16445304	      7.62068319	     -4.03584205	    -17.18501369	     20.90945862	     -7.20787705	     19.92873874	     -5.44457194	     -0.94727591	    -50.86120894	     20.69724330	    -18.69597717	    -15.91219529	      2.40967805	     -5.40913929
